HIERARCHY
ROOT joint_Root
{
	OFFSET 0.0 0.0 0.0
	CHANNELS 6 Xposition Yposition Zposition Zrotation Xrotation Yrotation 
	JOINT Hips
	{
		OFFSET -0.726466 93.3139 -2.00062
		CHANNELS 6 Xposition Yposition Zposition Zrotation Xrotation Yrotation 
		JOINT Spine
		{
			OFFSET 15.7357 0.0 0.0
			CHANNELS 6 Xposition Yposition Zposition Zrotation Xrotation Yrotation 
			JOINT Chest
			{
				OFFSET 8.98455 -0.406207 0.0
				CHANNELS 6 Xposition Yposition Zposition Zrotation Xrotation Yrotation 
				JOINT Neck
				{
					OFFSET 16.3773 0.0 0.0
					CHANNELS 6 Xposition Yposition Zposition Zrotation Xrotation Yrotation 
					JOINT Head
					{
						OFFSET 6.45672 0.0 0.0
						CHANNELS 6 Xposition Yposition Zposition Zrotation Xrotation Yrotation 
						End Site
						{
							OFFSET 0.0 0.0 0.0
						}
					}
				}
				JOINT Shoulder_L
				{
					OFFSET 12.9942 -0.242716 4.98039
					CHANNELS 6 Xposition Yposition Zposition Zrotation Xrotation Yrotation 
					JOINT UpperArm_L
					{
						OFFSET 5.34809 0.0 0.0
						CHANNELS 6 Xposition Yposition Zposition Zrotation Xrotation Yrotation 
						JOINT LowerArm_L
						{
							OFFSET 24.3286 1.87007e-05 0.0
							CHANNELS 6 Xposition Yposition Zposition Zrotation Xrotation Yrotation 
							JOINT Hand_L
							{
								OFFSET 22.2916 0.0 0.0
								CHANNELS 6 Xposition Yposition Zposition Zrotation Xrotation Yrotation 
								End Site
								{
									OFFSET 0.0 0.0 0.0
								}
							}
						}
					}
				}
				JOINT Shoulder_R
				{
					OFFSET 12.9945 -0.242716 -4.98039
					CHANNELS 6 Xposition Yposition Zposition Zrotation Xrotation Yrotation 
					JOINT UpperArm_R
					{
						OFFSET -5.34813 0.0 0.0
						CHANNELS 6 Xposition Yposition Zposition Zrotation Xrotation Yrotation 
						JOINT LowerArm_R
						{
							OFFSET -24.3289 0.000322201 0.0
							CHANNELS 6 Xposition Yposition Zposition Zrotation Xrotation Yrotation 
							JOINT Hand_R
							{
								OFFSET -22.2915 -0.000108084 0.0
								CHANNELS 6 Xposition Yposition Zposition Zrotation Xrotation Yrotation 
								End Site
								{
									OFFSET 0.0 0.0 0.0
								}
							}
						}
					}
				}
			}
		}
		JOINT UpperLeg_L
		{
			OFFSET -2.19248 -6.46944 0.0
			CHANNELS 6 Xposition Yposition Zposition Zrotation Xrotation Yrotation 
			JOINT LowerLeg_L
			{
				OFFSET 39.0811 0.0 -1.23785e-05
				CHANNELS 6 Xposition Yposition Zposition Zrotation Xrotation Yrotation 
				JOINT Foot_L
				{
					OFFSET 40.9854 0.0 -1.26872e-05
					CHANNELS 6 Xposition Yposition Zposition Zrotation Xrotation Yrotation 
					JOINT Toes_L
					{
						OFFSET 11.7543 0.0 0.0
						CHANNELS 6 Xposition Yposition Zposition Zrotation Xrotation Yrotation 
						End Site
						{
							OFFSET 0.0 0.0 0.0
						}
					}
				}
			}
		}
		JOINT UpperLeg_R
		{
			OFFSET -2.19251 6.46944 0.0
			CHANNELS 6 Xposition Yposition Zposition Zrotation Xrotation Yrotation 
			JOINT LowerLeg_R
			{
				OFFSET -39.0811 -0.00228153 -0.0401928
				CHANNELS 6 Xposition Yposition Zposition Zrotation Xrotation Yrotation 
				JOINT Foot_R
				{
					OFFSET -40.9854 0.0 0.0
					CHANNELS 6 Xposition Yposition Zposition Zrotation Xrotation Yrotation 
					JOINT Toes_R
					{
						OFFSET -11.7543 0.0 0.0
						CHANNELS 6 Xposition Yposition Zposition Zrotation Xrotation Yrotation 
						End Site
						{
							OFFSET 0.0 0.0 0.0
						}
					}
				}
			}
		}
	}
}
MOTION
Frames:	6
Frame Time:	0.0333333
0.000000 0.000000 0.000000 0.000000 0.000000 -0.000000 -4.007060 83.857400 -5.108680 -90.200500 -0.473001 177.870000 15.735700 0.000005 -0.000001 80.219900 82.346600 -81.220200 8.984550 -0.406207 -0.000000 7.302090 -2.586510 -1.833610 16.377300 -0.000001 -0.000001 -1.916900 -2.075710 -0.486313 6.456720 -0.000001 -0.000000 -2.907900 -0.839166 2.792030 12.994200 -0.242716 4.980390 -89.022000 -2.520720 -68.779100 5.348090 -0.000007 -0.000001 -64.750900 28.167500 -19.905300 24.328600 0.000019 0.000005 5.433700 -1.449400 -104.897000 22.291600 -0.000001 0.000005 0.874186 5.606610 -11.747200 12.994500 -0.242716 -4.980390 87.925700 5.007360 -67.460400 -5.348130 -0.000001 -0.000004 -67.402800 37.323700 2.281260 -24.328900 0.000322 -0.000009 11.762900 0.557152 -87.338800 -22.291500 -0.000108 -0.000004 21.887900 5.670190 -17.395400 -2.192480 -6.469440 -0.000000 175.870000 -5.419010 -13.043100 39.081100 -0.000007 -0.000012 -0.038238 0.031904 50.162700 40.985400 -0.000006 -0.000013 7.675860 -3.026530 -89.886100 11.754300 -0.000000 0.000003 -1.333100 -1.726300 -15.521500 -2.192510 6.469440 -0.000001 -177.477000 2.946960 148.528000 -39.081100 -0.002282 -0.040193 -0.516387 -0.143119 105.387000 -40.985400 0.000008 0.000006 11.519200 -11.244200 -44.504700 -11.754300 -0.000006 -0.000006 -0.022295 -0.179686 -23.919000
0.000000 0.000000 0.000000 0.000000 0.000000 -0.000000 -3.517320 86.211000 -14.903100 -87.010700 -4.210610 177.512000 15.735700 0.000005 -0.000001 66.335200 81.939700 -65.663500 8.984550 -0.406207 -0.000000 7.071340 -6.452260 1.741990 16.377300 -0.000001 -0.000001 -1.230730 -2.350850 -1.192990 6.456720 -0.000001 -0.000000 -2.724700 1.727560 1.645220 12.994200 -0.242716 4.980390 -88.512600 -4.262540 -70.737200 5.348090 -0.000007 -0.000001 -66.236700 29.831500 -25.394400 24.328600 0.000019 0.000005 0.528576 -0.168595 -107.921000 22.291600 -0.000001 0.000005 3.052980 5.609460 -11.921300 12.994500 -0.242716 -4.980390 88.384700 3.554320 -65.535100 -5.348130 -0.000001 -0.000004 -67.548100 39.500400 7.603070 -24.328900 0.000322 -0.000009 9.899560 -0.219947 -91.259200 -22.291500 -0.000108 -0.000004 21.370500 5.669550 -17.302200 -2.192480 -6.469440 -0.000000 -178.888000 -3.704520 -2.927490 39.081100 -0.000007 -0.000012 0.068508 -0.080339 40.454600 40.985400 -0.000006 -0.000013 7.958070 0.703611 -80.874500 11.754300 -0.000000 0.000003 -2.074530 -2.197360 -23.889800 -2.192510 6.469440 -0.000001 -172.633000 4.583750 143.620000 -39.081100 -0.002282 -0.040193 -0.334736 -0.038343 96.456400 -40.985400 0.000008 0.000006 10.339800 -15.919400 -50.141900 -11.754300 -0.000006 -0.000006 -0.020881 -0.172121 -23.607000
0.000000 0.000000 0.000000 0.000000 0.000000 -0.000000 -3.147150 89.302600 -24.593100 -84.591400 -7.072260 175.593000 15.735700 0.000005 -0.000001 54.861800 81.772600 -52.690900 8.984550 -0.406207 -0.000000 5.937670 -9.481270 4.837530 16.377300 -0.000001 -0.000001 -0.923345 -2.518280 -1.445960 6.456720 -0.000001 -0.000000 -2.513260 3.459030 0.677697 12.994200 -0.242716 4.980390 -88.090500 -5.888680 -71.996400 5.348090 -0.000007 -0.000001 -66.642500 32.207500 -29.384500 24.328600 0.000019 0.000005 -1.658880 0.618424 -110.445000 22.291600 -0.000001 0.000005 4.429410 5.614910 -12.277400 12.994500 -0.242716 -4.980390 88.992900 2.076310 -64.111200 -5.348130 -0.000001 -0.000004 -67.946200 39.958700 11.915300 -24.328900 0.000322 -0.000009 11.072200 -0.863709 -94.405500 -22.291500 -0.000108 -0.000004 19.054900 5.664160 -16.506500 -2.192480 -6.469440 -0.000000 -173.747000 -4.466560 2.274590 39.081100 -0.000007 -0.000012 0.018959 -0.028986 33.186400 40.985400 -0.000006 -0.000013 5.597930 6.910570 -64.162300 11.754300 -0.000000 0.000003 -0.138643 -0.531815 -39.001200 -2.192510 6.469440 -0.000001 -169.328000 4.851390 140.377000 -39.081100 -0.002282 -0.040193 -0.143489 0.023505 80.873000 -40.985400 0.000008 0.000006 9.884800 -18.152700 -54.506600 -11.754300 -0.000006 -0.000006 -0.022246 -0.179427 -23.908300
0.000000 0.000000 0.000000 0.000000 0.000000 -0.000000 -2.926570 92.164900 -34.224200 -84.371200 -8.035500 174.958000 15.735700 0.000005 -0.000001 49.849900 81.455500 -47.100500 8.984550 -0.406207 -0.000000 5.650910 -11.044300 6.052770 16.377300 -0.000001 -0.000001 -0.531536 -2.450870 -1.446300 6.456720 -0.000001 -0.000000 -3.002900 4.271170 0.448651 12.994200 -0.242716 4.980390 -87.736300 -7.105840 -72.278200 5.348090 -0.000007 -0.000001 -66.345600 34.598200 -32.723500 24.328600 0.000019 0.000005 0.042867 -0.017683 -112.132000 22.291600 -0.000001 0.000005 3.132760 5.604730 -11.619400 12.994500 -0.242716 -4.980390 89.647500 0.703269 -63.369300 -5.348130 -0.000001 -0.000004 -69.244700 38.597900 15.541900 -24.328900 0.000322 -0.000009 10.726500 -1.219560 -96.412100 -22.291500 -0.000108 -0.000004 16.177200 5.646430 -14.593600 -2.192480 -6.469440 -0.000000 -169.494000 -9.357580 6.740640 39.081100 -0.000007 -0.000012 0.030526 -0.058554 27.534400 40.985400 -0.000006 -0.000013 1.210510 14.693600 -43.592100 11.754300 -0.000000 0.000003 -0.139632 -0.533854 -39.093100 -2.192510 6.469440 -0.000001 -169.397000 4.370690 142.079000 -39.081100 -0.002282 -0.040193 -0.008409 0.006599 60.379600 -40.985400 0.000008 0.000006 8.162030 -14.995400 -58.390900 -11.754300 -0.000006 -0.000006 -0.023017 -0.183458 -24.074700
0.000000 0.000000 0.000000 0.000000 0.000000 -0.000000 -3.152740 93.467700 -43.957300 -85.404300 -8.054460 174.401000 15.735700 0.000005 -0.000001 47.583200 81.472100 -44.781500 8.984550 -0.406207 -0.000000 5.199450 -11.544100 6.137970 16.377300 -0.000001 -0.000001 -0.388772 -2.515630 -1.172340 6.456720 -0.000001 -0.000000 -3.360570 4.627040 0.459454 12.994200 -0.242716 4.980390 -87.393800 -8.439210 -72.768100 5.348090 -0.000007 -0.000001 -66.717100 36.778700 -34.417300 24.328600 0.000019 0.000005 0.833038 -0.359822 -113.361000 22.291600 -0.000001 0.000005 3.011320 5.590930 -10.816300 12.994500 -0.242716 -4.980390 90.469700 -0.916249 -62.862500 -5.348130 -0.000001 -0.000004 -70.971500 36.034400 18.187300 -24.328900 0.000322 -0.000009 10.470300 -1.471330 -97.912000 -22.291500 -0.000108 -0.000004 13.101800 5.620380 -12.616000 -2.192480 -6.469440 -0.000000 -168.619000 -9.091910 9.836990 39.081100 -0.000007 -0.000012 0.056490 -0.112080 26.748800 40.985400 -0.000006 -0.000013 -1.770130 11.513800 -34.836600 11.754300 -0.000000 0.000003 -0.005289 -0.064248 -19.191100 -2.192510 6.469440 -0.000001 -171.125000 5.402030 145.950000 -39.081100 -0.002282 -0.040193 0.023656 -0.025862 38.230000 -40.985400 0.000008 0.000006 3.857120 -4.947440 -62.688000 -11.754300 -0.000006 -0.000006 -0.023792 -0.187451 -24.239500
0.000000 0.000000 0.000000 0.000000 0.000000 -0.000000 -3.773910 93.124700 -54.139700 -88.386400 -8.097610 174.282000 15.735700 0.000005 -0.000001 45.057500 81.470700 -42.998300 8.984550 -0.406207 -0.000000 4.613170 -12.086400 4.614140 16.377300 -0.000001 -0.000001 -0.612531 -2.520060 -0.933368 6.456720 -0.000001 -0.000000 -3.122820 4.650420 1.057910 12.994200 -0.242716 4.980390 -87.144700 -9.492940 -73.174000 5.348090 -0.000007 -0.000001 -67.543500 38.652700 -33.963300 24.328600 0.000019 0.000005 0.938243 -0.421732 -114.204000 22.291600 -0.000001 0.000005 4.222850 5.595650 -11.076600 12.994500 -0.242716 -4.980390 90.996300 -1.930490 -62.696400 -5.348130 -0.000001 -0.000004 -71.924400 33.983300 19.628000 -24.328900 0.000322 -0.000009 9.329940 -1.520800 -99.178700 -22.291500 -0.000108 -0.000004 11.810700 5.601710 -11.443700 -2.192480 -6.469440 -0.000000 -172.059000 -5.684100 11.285100 39.081100 -0.000007 -0.000012 0.065986 -0.098610 33.788400 40.985400 -0.000006 -0.000013 2.246980 -0.896064 -38.879600 11.754300 -0.000000 0.000003 -0.006809 -0.078026 -19.753100 -2.192510 6.469440 -0.000001 -174.337000 8.037940 149.658000 -39.081100 -0.002282 -0.040193 -0.017495 0.054298 20.973300 -40.985400 0.000008 0.000006 -0.911288 5.203550 -66.328400 -11.754300 -0.000006 -0.000006 -0.026159 -0.199287 -24.728900
